<svg width="13" height="7" viewBox="0 0 13 7" fill="none" xmlns="http://www.w3.org/2000/svg">
<path d="M6.19031 6.87781C6.09983 6.87834 6.01014 6.86099 5.92638 6.82678C5.84261 6.79257 5.76643 6.74216 5.70219 6.67844L0.202188 1.17844C0.138087 1.11434 0.0872386 1.03824 0.0525472 0.954484C0.0178557 0.870732 0 0.780966 0 0.690313C0 0.50723 0.0727292 0.331647 0.202188 0.202188C0.331647 0.0727289 0.507231 0 0.690313 0C0.873395 0 1.04898 0.0727289 1.17844 0.202188L6.19031 5.22094L11.2022 0.202188C11.3316 0.0727289 11.5072 0 11.6903 0C11.8734 0 12.049 0.0727289 12.1784 0.202188C12.3079 0.331647 12.3806 0.50723 12.3806 0.690313C12.3806 0.873395 12.3079 1.04898 12.1784 1.17844L6.67844 6.67844C6.6142 6.74216 6.53801 6.79257 6.45425 6.82678C6.37049 6.86099 6.28079 6.87834 6.19031 6.87781Z" fill="black"/>
</svg>
