<svg width="17" height="17" viewBox="0 0 17 17" fill="none" xmlns="http://www.w3.org/2000/svg">
<path d="M8.08191 0.0859006C8.34754 -0.0286335 8.65301 -0.0286335 8.91864 0.0859006L16.3563 3.2735C16.8211 3.47305 17.0801 3.9711 16.9772 4.4625C16.8776 4.95723 16.4426 5.28262 15.908 5.3125V5.57813C15.908 6.01973 15.5826 6.375 15.1111 6.375H1.82965C1.41926 6.375 1.03277 6.01973 1.03277 5.57813V5.3125C0.558284 5.28262 0.123249 4.95723 0.0218054 4.4625C-0.0796253 3.9711 0.180393 3.47305 0.64395 3.2735L8.08191 0.0859006ZM8.50028 4.25C9.08798 4.25 9.56279 3.7752 9.56279 3.1875C9.56279 2.6008 9.08798 2.125 8.50028 2.125C7.91257 2.125 7.43776 2.6008 7.43776 3.1875C7.43776 3.7752 7.91257 4.25 8.50028 4.25ZM4.22032 13.8125H5.54847V7.4375H7.67351V13.8125H9.29717V7.4375H11.4222V13.8125H12.7503V7.4375H14.8754V13.9553C14.8953 13.9652 14.9152 13.9486 14.9352 13.9918L16.5289 15.0543C16.9174 15.3133 17.0901 15.798 16.9539 16.2463C16.8178 16.6945 16.4061 17 15.9379 17H1.03277C0.594476 17 0.181356 16.6945 0.0456855 16.2463C-0.090018 15.798 0.0836373 15.3133 0.473283 15.0543L2.06706 13.9918C2.08599 13.9486 2.10558 13.9652 2.09528 13.9553V7.4375H4.22032V13.8125Z" fill="#D9A425"/>
</svg>
