<svg width="24" height="25" viewBox="0 0 24 25" fill="none" xmlns="http://www.w3.org/2000/svg">
<path d="M20.1002 9.96289L17.666 12.4985L20.1002 15.0342L22.5344 12.4985L20.1002 9.96289Z" fill="#D9A425"/>
<path d="M3.90101 9.96436L1.4668 12.5L3.90101 15.0356L6.33523 12.5L3.90101 9.96436Z" fill="#D9A425"/>
<path d="M12 18.4023L7.965 14.1992L5.53125 16.7344L12 23.4727L18.4688 16.7344L16.035 14.1992L12 18.4023Z" fill="#D9A425"/>
<path d="M12 6.59766L16.035 10.8008L18.4688 8.26562L12 1.52734L5.53125 8.26562L7.965 10.8008L12 6.59766Z" fill="#D9A425"/>
<path d="M11.9994 9.99612L9.5957 12.5L11.9994 15.0039L14.4031 12.5L11.9994 9.99612Z" fill="#D9A425"/>
</svg>
