<svg width="35" height="30" viewBox="0 0 35 30" fill="none" xmlns="http://www.w3.org/2000/svg">
<path d="M33.5213 0H9.18671C8.80368 0.000479292 8.43574 0.1601 8.16018 0.445325C7.88462 0.730551 7.7229 1.11918 7.70898 1.52956C7.69507 1.93994 7.83006 2.34013 8.08558 2.64605C8.3411 2.95197 8.69726 3.13981 9.07924 3.1701V4.58756C8.82145 4.56184 8.56134 4.54813 8.29917 4.54813C6.09861 4.55108 3.98899 5.48975 2.43313 7.15821C0.877277 8.82668 0.00224313 11.0887 0 13.448C0 16.6129 1.44926 18.5037 2.72836 20.1719C3.41067 21.0619 4.05976 21.9089 4.47253 22.8932C4.26902 23.0427 4.1053 23.2464 3.99748 23.4842C3.88966 23.7221 3.84145 23.9859 3.85759 24.2498C3.87373 24.5137 3.95367 24.7685 4.08953 24.9893C4.2254 25.21 4.41252 25.389 4.63249 25.5087C4.5257 25.7411 4.47598 25.9988 4.48804 26.2576C4.50011 26.5163 4.57356 26.7675 4.70143 26.9873C4.82931 27.2071 5.00739 27.3883 5.21882 27.5138C5.43025 27.6392 5.66804 27.7047 5.90968 27.7041H6.43005V27.9961C6.43005 28.5275 6.62697 29.0372 6.9775 29.4131C7.32803 29.7889 7.80345 30 8.29917 30C8.7949 30 9.27032 29.7889 9.62085 29.4131C9.97138 29.0372 10.1683 28.5275 10.1683 27.9961V27.7041H10.6886C10.9302 27.7047 11.168 27.6392 11.3795 27.5138C11.5909 27.3883 11.769 27.2071 11.8968 26.9873C12.0247 26.7675 12.0982 26.5163 12.1102 26.2576C12.1223 25.9988 12.0726 25.7411 11.9658 25.5087C12.1859 25.389 12.3732 25.2098 12.5091 24.9889C12.645 24.7681 12.7249 24.513 12.7409 24.2489C12.757 23.9849 12.7086 23.7209 12.6005 23.483C12.4924 23.2451 12.3284 23.0414 12.1246 22.8921C12.217 22.6739 12.3203 22.461 12.4338 22.2545H33.1492C33.2759 22.2545 33.3974 22.2005 33.487 22.1045C33.5766 22.0084 33.6269 21.8782 33.6269 21.7423V3.17024C34.0091 3.14046 34.3656 2.95296 34.6215 2.64718C34.8774 2.3414 35.0127 1.94115 34.9991 1.53059C34.9854 1.12003 34.8238 0.731144 34.5482 0.445701C34.2726 0.160257 33.9045 0.000492995 33.5213 0ZM3.46645 19.5216C2.23199 17.9112 0.955415 16.246 0.955415 13.448C0.955652 12.3098 1.18595 11.1851 1.63046 10.1515C2.07496 9.11785 2.72312 8.19977 3.5303 7.46044C4.33748 6.72112 5.28451 6.17811 6.3062 5.86881C7.32788 5.55951 8.39995 5.49126 9.4486 5.66876C9.47188 5.67456 9.49553 5.67845 9.51935 5.68042C11.2507 5.9905 12.8202 6.95829 13.9408 8.40688L13.7665 9.38283L13.1739 9.74929C12.306 8.4088 10.9881 7.48017 9.49612 7.15776C8.0041 6.83536 6.45359 7.14417 5.16911 8.01956C3.88464 8.89495 2.96575 10.2691 2.60478 11.8543C2.24381 13.4396 2.46873 15.1131 3.23247 16.5246C3.99621 17.9361 5.23956 18.9761 6.70231 19.4271C8.16505 19.8781 9.7338 19.705 11.0802 18.9441C12.4266 18.1832 13.4464 16.8934 13.926 15.3447C14.4056 13.7961 14.3079 12.1085 13.6534 10.6353L14.2436 10.2699L15.1488 10.6047C15.4771 11.5112 15.6447 12.4755 15.6428 13.448C15.6428 16.2465 14.3656 17.9119 13.1306 19.5225C12.6657 20.1282 12.1932 20.7465 11.7907 21.4221C11.7686 21.4518 11.7496 21.4841 11.7341 21.5184C11.5269 21.8712 11.3458 22.2409 11.1926 22.6242H5.40395C4.93909 21.4446 4.19211 20.4681 3.46645 19.5216ZM7.88552 13.6148C7.91686 13.6731 7.9586 13.7241 8.00837 13.7651C8.05813 13.8061 8.11494 13.8361 8.17554 13.8535C8.23614 13.8709 8.29935 13.8753 8.36155 13.8665C8.42375 13.8577 8.48372 13.8359 8.53803 13.8022L9.60822 13.1397C9.61936 13.2121 9.62521 13.2853 9.62572 13.3587C9.62664 13.6818 9.52505 13.9957 9.33764 14.2488C9.15023 14.5018 8.88813 14.6791 8.59437 14.7514C8.30062 14.8236 7.99266 14.7867 7.72107 14.6466C7.44948 14.5065 7.23039 14.2716 7.09978 13.9803C6.96916 13.6891 6.93478 13.359 7.00228 13.044C7.06978 12.7291 7.23515 12.4481 7.47123 12.2473C7.70732 12.0464 8.00009 11.9376 8.30148 11.9386C8.60288 11.9397 8.89498 12.0506 9.12983 12.2531L8.06025 12.9152C8.00593 12.9488 7.95833 12.9936 7.92015 13.047C7.88197 13.1003 7.85397 13.1612 7.83774 13.2262C7.82152 13.2912 7.81739 13.3589 7.82558 13.4256C7.83378 13.4923 7.85415 13.5565 7.88552 13.6148ZM8.29917 10.9143C7.81749 10.9144 7.34819 11.0779 6.95852 11.3815C6.56885 11.6851 6.2788 12.1131 6.12993 12.6043C5.98106 13.0954 5.98101 13.6245 6.12978 14.1157C6.27855 14.6069 6.56851 15.035 6.95811 15.3386C7.34772 15.6423 7.81699 15.806 8.29867 15.8062C8.78036 15.8064 9.24976 15.6432 9.63961 15.3399C10.0295 15.0366 10.3198 14.6087 10.4689 14.1177C10.6181 13.6266 10.6185 13.0976 10.47 12.6063L11.3082 12.0874C11.6102 12.9035 11.6131 13.8118 11.3164 14.6301C11.0197 15.4485 10.4454 16.1162 9.70856 16.4994C8.97176 16.8825 8.12705 16.9527 7.34396 16.6959C6.56087 16.4391 5.89734 15.8743 5.48653 15.1148C5.07573 14.3553 4.94804 13.4573 5.1291 12.6011C5.31016 11.7448 5.78656 10.9937 6.46271 10.4984C7.13885 10.0031 7.96471 9.80025 8.77453 9.93062C9.58436 10.061 10.3182 10.5149 10.8289 11.2013L9.99084 11.72C9.77718 11.4662 9.51619 11.2633 9.22476 11.1245C8.93332 10.9857 8.61794 10.914 8.29904 10.9142L8.29917 10.9143ZM8.29917 8.86774C7.39671 8.86745 6.51825 9.17942 5.7944 9.75727C5.07055 10.3351 4.53997 11.148 4.28153 12.075C4.02309 13.0021 4.0506 13.9938 4.35996 14.9027C4.66932 15.8117 5.24403 16.5893 5.99862 17.12C6.75322 17.6507 7.64742 17.9062 8.54828 17.8484C9.44914 17.7906 10.3085 17.4227 10.9987 16.7993C11.6889 16.1759 12.1731 15.3304 12.3792 14.3884C12.5852 13.4464 12.5023 12.4582 12.1426 11.5708L12.8219 11.1503C13.3556 12.3992 13.4205 13.8204 13.0032 15.1192C12.5858 16.418 11.7182 17.4947 10.5802 18.1262C9.44227 18.7576 8.1213 18.8952 6.89126 18.5105C5.66121 18.1258 4.61645 17.2483 3.97363 16.06C3.33082 14.8716 3.13926 13.4636 3.4387 12.1279C3.73813 10.7922 4.50557 9.6313 5.58188 8.88593C6.65818 8.14057 7.96078 7.86793 9.21954 8.12455C10.4783 8.38117 11.5966 9.14736 12.3427 10.2642L11.6637 10.6845C11.2742 10.1209 10.767 9.66305 10.1827 9.34755C9.59838 9.03204 8.95326 8.86769 8.29904 8.86766L8.29917 8.86774ZM16.3886 7.75956L14.8602 8.70576L14.9286 8.32252L16.4569 7.37705L16.3886 7.75956ZM16.8652 8.64735L17.2049 8.77282L15.679 9.71712L15.3396 9.59164L16.8652 8.64735ZM9.21289 27.9964C9.21289 28.2562 9.11662 28.5054 8.94527 28.6891C8.77391 28.8728 8.54151 28.976 8.29917 28.976C8.05684 28.976 7.82444 28.8728 7.65308 28.6891C7.48173 28.5054 7.38546 28.2562 7.38546 27.9964V27.7045H9.21289V27.9964ZM10.6886 26.6802H5.90968C5.78653 26.6786 5.66893 26.6251 5.58237 26.5311C5.49581 26.4372 5.44727 26.3105 5.44727 26.1784C5.44727 26.0464 5.49581 25.9197 5.58237 25.8258C5.66893 25.7318 5.78653 25.6783 5.90968 25.6767H10.6886C10.8122 25.6784 10.9303 25.7318 11.0178 25.8255C11.1052 25.9192 11.155 26.0459 11.1567 26.1784C11.1564 26.3114 11.107 26.4389 11.0193 26.5329C10.9316 26.6268 10.8126 26.6797 10.6886 26.6799V26.6802ZM11.3204 24.6524H5.27796C5.21602 24.6532 5.15454 24.6408 5.0971 24.616C5.03966 24.5911 4.9874 24.5543 4.94333 24.5076C4.89927 24.4609 4.86428 24.4053 4.8404 24.344C4.81653 24.2828 4.80423 24.217 4.80423 24.1506C4.80423 24.0842 4.81653 24.0184 4.8404 23.9572C4.86428 23.8959 4.89927 23.8403 4.94333 23.7936C4.9874 23.7469 5.03966 23.7101 5.0971 23.6853C5.15454 23.6604 5.21602 23.648 5.27796 23.6488H11.3206C11.4437 23.6504 11.5614 23.704 11.6479 23.7979C11.7345 23.8918 11.783 24.0186 11.783 24.1506C11.783 24.2826 11.7345 24.4094 11.6479 24.5033C11.5614 24.5972 11.4437 24.6508 11.3206 24.6524H11.3204ZM32.6715 21.2298H13.0803C13.3293 20.8767 13.5962 20.5282 13.8687 20.1729C15.1481 18.5044 16.5983 16.6133 16.5983 13.4477C16.5998 12.4793 16.4529 11.5172 16.1634 10.5998L18.5902 9.09802C18.6696 9.04892 18.7341 8.97637 18.7761 8.88904C18.818 8.80171 18.8357 8.70328 18.827 8.60548C18.8182 8.50768 18.7834 8.41465 18.7267 8.33748C18.67 8.2603 18.5938 8.20224 18.5071 8.17022L17.9614 7.96852L18.1407 7.85755C18.1963 7.82464 18.2452 7.78017 18.2846 7.72675C18.324 7.67333 18.353 7.61202 18.37 7.54643C18.387 7.48083 18.3917 7.41225 18.3837 7.3447C18.3757 7.27716 18.3552 7.212 18.3235 7.15304C18.2917 7.09408 18.2493 7.0425 18.1987 7.00132C18.1481 6.96014 18.0904 6.93019 18.0289 6.91321C17.9674 6.89624 17.9034 6.89258 17.8405 6.90245C17.7777 6.91233 17.7173 6.93554 17.6629 6.97072L17.4825 7.08249L17.5918 6.4697C17.6091 6.37333 17.6001 6.27368 17.566 6.18261C17.5319 6.09155 17.4742 6.0129 17.3996 5.95602C17.325 5.89914 17.2367 5.86643 17.1453 5.86177C17.0539 5.85711 16.9632 5.88071 16.8839 5.92976L14.4289 7.4491C13.2652 6.07516 11.728 5.12835 10.0347 4.74265V3.17471H32.6715V21.2298ZM33.5213 2.15039H9.18671C9.04846 2.14869 8.91641 2.08863 8.8192 1.98322C8.722 1.8778 8.66748 1.73555 8.66748 1.58732C8.66748 1.43909 8.722 1.29684 8.8192 1.19142C8.91641 1.08601 9.04846 1.02595 9.18671 1.02425H33.5213C33.6606 1.0247 33.794 1.08438 33.8923 1.19019C33.9906 1.296 34.0457 1.43929 34.0455 1.5886C34.0436 1.737 33.9878 1.87876 33.8899 1.98369C33.792 2.08862 33.6598 2.14843 33.5213 2.15039ZM30.6208 11.9754L30.0534 12.5837L30.6208 13.192C30.6651 13.2396 30.7003 13.296 30.7243 13.3582C30.7483 13.4203 30.7607 13.4869 30.7607 13.5541C30.7607 13.6214 30.7484 13.688 30.7244 13.7501C30.7004 13.8123 30.6652 13.8687 30.6208 13.9163C30.5765 13.9638 30.5238 14.0015 30.4659 14.0273C30.4079 14.053 30.3458 14.0663 30.2831 14.0663C30.2203 14.0663 30.1582 14.053 30.1003 14.0273C30.0423 14.0016 29.9897 13.9639 29.9453 13.9163L29.3779 13.308L28.8105 13.9163C28.7206 14.0107 28.5996 14.0633 28.4738 14.0626C28.3479 14.0619 28.2274 14.008 28.1384 13.9126C28.0494 13.8172 27.9992 13.688 27.9985 13.5531C27.9979 13.4182 28.0469 13.2884 28.135 13.192L28.7024 12.5837L28.135 11.9754C28.0906 11.9278 28.0554 11.8714 28.0314 11.8092C28.0074 11.7471 27.9951 11.6805 27.9951 11.6133C27.9951 11.546 28.0074 11.4794 28.0315 11.4173C28.0555 11.3552 28.0906 11.2987 28.135 11.2512C28.1794 11.2036 28.232 11.1659 28.29 11.1402C28.3479 11.1144 28.41 11.1012 28.4728 11.1012C28.5355 11.1012 28.5976 11.1144 28.6556 11.1402C28.7135 11.1659 28.7662 11.2036 28.8105 11.2512L29.3779 11.8595L29.9453 11.2512C30.035 11.1559 30.1563 11.1026 30.2826 11.1029C30.4089 11.1032 30.5299 11.1572 30.6192 11.2529C30.7085 11.3486 30.7588 11.4784 30.7591 11.6138C30.7594 11.7492 30.7097 11.8792 30.6208 11.9754ZM20.5439 17.086C20.5443 17.4519 20.6404 17.8102 20.8212 18.1205C21.0021 18.4307 21.2604 18.6803 21.567 18.8411C21.8735 19.0018 22.2159 19.0671 22.5553 19.0296C22.8948 18.9922 23.2176 18.8534 23.4871 18.6291C23.7567 18.4049 23.9622 18.104 24.0803 17.7608C24.1984 17.4176 24.2244 17.0457 24.1552 16.6875C24.0861 16.3292 23.9247 15.999 23.6893 15.7342C23.4538 15.4693 23.1539 15.2806 22.8234 15.1894C22.9738 12.1551 24.1125 10.1339 26.2894 9.04862L26.0984 9.51131C26.0722 9.57296 26.0577 9.63956 26.0557 9.70726C26.0537 9.77497 26.0642 9.84242 26.0867 9.90573C26.1092 9.96904 26.1431 10.0269 26.1866 10.0761C26.2301 10.1252 26.2822 10.1646 26.34 10.192C26.3978 10.2194 26.4601 10.2343 26.5232 10.2357C26.5864 10.2371 26.6492 10.2251 26.708 10.2003C26.7668 10.1755 26.8204 10.1385 26.8658 10.0913C26.9112 10.0442 26.9474 9.98787 26.9723 9.92563L27.6253 8.34253C27.6752 8.22142 27.6794 8.08432 27.637 7.95998C27.5947 7.83563 27.509 7.73371 27.3981 7.67557L25.9467 6.91509C25.8903 6.88556 25.8291 6.86823 25.7664 6.86407C25.7038 6.85991 25.6411 6.86902 25.5817 6.89087C25.5224 6.91272 25.4677 6.94689 25.4207 6.99142C25.3736 7.03595 25.3353 7.08997 25.3077 7.1504C25.2802 7.21083 25.264 7.27648 25.2601 7.34361C25.2563 7.41074 25.2648 7.47803 25.2851 7.54164C25.3055 7.60525 25.3374 7.66394 25.3789 7.71434C25.4204 7.76475 25.4708 7.80589 25.5272 7.83542L25.981 8.07318C24.7253 8.67732 23.7471 9.55368 23.0667 10.6892C22.35 11.885 21.9472 13.4027 21.8662 15.2044C21.4854 15.3222 21.1506 15.5693 20.9122 15.9086C20.6737 16.248 20.5445 16.6612 20.5439 17.086ZM22.3686 16.1521C22.6091 16.1531 22.8393 16.2564 23.0088 16.4393C23.1783 16.6221 23.2732 16.8696 23.2728 17.1274C23.2723 17.3852 23.1764 17.6322 23.0062 17.8143C22.836 17.9964 22.6054 18.0987 22.3649 18.0987C22.1245 18.0987 21.8938 17.9964 21.7236 17.8143C21.5534 17.6322 21.4576 17.3852 21.4571 17.1274C21.4566 16.8696 21.5515 16.6221 21.721 16.4393C21.8905 16.2564 22.1207 16.1531 22.3612 16.1521C22.3637 16.1523 22.3662 16.1523 22.3686 16.1521ZM30.6208 16.4778L30.0534 17.0861L30.6208 17.6944C30.7104 17.7905 30.7607 17.9207 30.7607 18.0565C30.7607 18.1924 30.7104 18.3226 30.6208 18.4187C30.5312 18.5147 30.4098 18.5687 30.2831 18.5687C30.1564 18.5687 30.0349 18.5147 29.9453 18.4187L29.3779 17.8104L28.8105 18.4187C28.7206 18.5131 28.5996 18.5657 28.4738 18.565C28.3479 18.5643 28.2274 18.5104 28.1384 18.415C28.0494 18.3196 27.9992 18.1904 27.9985 18.0555C27.9979 17.9206 28.0469 17.7908 28.135 17.6944L28.7024 17.0861L28.135 16.4778C28.0454 16.3817 27.9951 16.2515 27.9951 16.1157C27.9951 15.9798 28.0454 15.8496 28.135 15.7535C28.2246 15.6575 28.3461 15.6036 28.4728 15.6036C28.5994 15.6036 28.7209 15.6575 28.8105 15.7536L29.3779 16.3619L29.9453 15.7536C30.035 15.6583 30.1563 15.605 30.2826 15.6053C30.4089 15.6056 30.5299 15.6596 30.6192 15.7553C30.7085 15.851 30.7588 15.9808 30.7591 16.1162C30.7594 16.2516 30.7097 16.3816 30.6208 16.4778ZM20.219 7.9266L20.7867 7.31871L20.219 6.71039C20.1744 6.66289 20.1391 6.60644 20.1149 6.54427C20.0907 6.48209 20.0783 6.41543 20.0782 6.34807C20.0781 6.28072 20.0903 6.21401 20.1143 6.15176C20.1383 6.08951 20.1735 6.03294 20.2179 5.98529C20.2623 5.93765 20.315 5.89986 20.3731 5.87409C20.4311 5.84832 20.4933 5.83508 20.5562 5.83512C20.619 5.83516 20.6812 5.84849 20.7392 5.87434C20.7972 5.90018 20.8499 5.93804 20.8942 5.98575L21.4626 6.59444L22.0309 5.98575C22.0753 5.93804 22.128 5.90018 22.186 5.87434C22.244 5.84849 22.3062 5.83516 22.369 5.83512C22.4318 5.83508 22.494 5.84832 22.5521 5.87409C22.6101 5.89986 22.6629 5.93765 22.7073 5.98529C22.7517 6.03294 22.7869 6.08951 22.8108 6.15176C22.8348 6.21401 22.8471 6.28072 22.847 6.34807C22.8469 6.41543 22.8344 6.48209 22.8103 6.54427C22.7861 6.60644 22.7507 6.66289 22.7062 6.71039L22.1385 7.31871L22.7062 7.9266C22.7958 8.0226 22.8462 8.15285 22.8463 8.28869C22.8464 8.42453 22.7961 8.55484 22.7066 8.65094C22.6622 8.69852 22.6096 8.73628 22.5516 8.76205C22.4937 8.78782 22.4316 8.8011 22.3688 8.80114C22.2421 8.80121 22.1206 8.74731 22.0309 8.65131L21.4626 8.04298L20.8942 8.65131C20.8046 8.74731 20.6831 8.80121 20.5564 8.80114C20.4296 8.80107 20.3082 8.74704 20.2186 8.65094C20.1291 8.55484 20.0788 8.42453 20.0789 8.28869C20.0789 8.15285 20.1293 8.0226 20.219 7.9266ZM29.692 9.277C30.0529 9.27674 30.4056 9.16177 30.7056 8.94664C31.0055 8.7315 31.2393 8.42585 31.3773 8.06832C31.5153 7.71078 31.5513 7.31741 31.4808 6.93793C31.4103 6.55845 31.2365 6.20988 30.9813 5.93629C30.7261 5.66271 30.401 5.47637 30.047 5.40085C29.693 5.32532 29.3261 5.364 28.9927 5.51198C28.6592 5.65996 28.3741 5.91061 28.1735 6.23225C27.9729 6.55389 27.8657 6.93207 27.8655 7.319C27.8659 7.83822 28.0584 8.33605 28.4009 8.70317C28.7433 9.07028 29.2077 9.27667 29.692 9.277ZM29.692 6.38681C29.8641 6.38696 30.0323 6.44183 30.1753 6.54448C30.3183 6.64712 30.4297 6.79292 30.4954 6.96345C30.5611 7.13398 30.5782 7.32157 30.5445 7.50251C30.5108 7.68345 30.4278 7.8496 30.306 7.97997C30.1842 8.11033 30.0291 8.19904 29.8603 8.23489C29.6915 8.27074 29.5165 8.25211 29.3576 8.18137C29.1986 8.11062 29.0628 7.99093 28.9673 7.83743C28.8718 7.68393 28.8209 7.50352 28.821 7.319C28.8211 7.19648 28.8437 7.07518 28.8875 6.96203C28.9314 6.84887 28.9955 6.74607 29.0764 6.65951C29.1573 6.57295 29.2533 6.50431 29.3589 6.45752C29.4645 6.41073 29.5777 6.3867 29.692 6.38681Z" fill="#D9A425"/>
</svg>
