<svg width="50" height="50" viewBox="0 0 50 50" fill="none" xmlns="http://www.w3.org/2000/svg">
<path d="M10.1562 34.375H36.7188V41.4062H10.1562V34.375Z" fill="#D7E0EF"/>
<path d="M45.3125 26.5625C45.3125 30.889 44.0296 35.1183 41.6259 38.7156C39.2223 42.3129 35.8058 45.1167 31.8087 46.7724C27.8116 48.428 23.4132 48.8612 19.1699 48.0172C14.9266 47.1731 11.0288 45.0897 7.96955 42.0305C4.91027 38.9712 2.82688 35.0734 1.98283 30.8301C1.13878 26.5868 1.57198 22.1884 3.22764 18.1913C4.88331 14.1942 7.68709 10.7778 11.2844 8.3741C14.8817 5.97045 19.111 4.6875 23.4375 4.6875V12.5C20.6562 12.5 17.9374 13.3248 15.6248 14.87C13.3122 16.4152 11.5098 18.6114 10.4455 21.181C9.3811 23.7506 9.10261 26.5781 9.64522 29.306C10.1878 32.0338 11.5271 34.5395 13.4938 36.5062C15.4605 38.4729 17.9662 39.8122 20.6941 40.3548C23.4219 40.8974 26.2494 40.6189 28.819 39.5546C31.3886 38.4902 33.5848 36.6878 35.1301 34.3752C36.6753 32.0626 37.5 29.3438 37.5 26.5625H45.3125Z" fill="#D9A425"/>
<path d="M23.4376 12.5V4.6875C18.017 4.68045 12.7884 6.69407 8.77274 10.3352C5.02881 14.5001 3.02486 19.9423 3.17376 25.5406C3.32265 31.139 5.61304 36.467 9.57306 40.427C13.5331 44.387 18.8611 46.6774 24.4594 46.8263C30.0578 46.9752 35.5 44.9713 39.6649 41.2273C43.306 37.2117 45.3196 31.9831 45.3126 26.5625H37.5001C37.5001 29.3438 36.6753 32.0626 35.1301 34.3752C33.5849 36.6878 31.3887 38.4902 28.8191 39.5546C26.2495 40.6189 23.422 40.8974 20.6941 40.3548C17.9663 39.8122 15.4606 38.4729 13.4939 36.5062C11.5272 34.5395 10.1879 32.0338 9.64529 29.306C9.10268 26.5781 9.38117 23.7506 10.4455 21.181C11.5099 18.6114 13.3123 16.4152 15.6249 14.87C17.9374 13.3247 20.6563 12.5 23.4376 12.5Z" fill="#D9A425"/>
<path d="M48.4375 23.4375H40.625C40.625 19.7079 39.1434 16.131 36.5062 13.4938C33.869 10.8566 30.2921 9.375 26.5625 9.375V1.5625C32.3638 1.56354 37.9272 3.86855 42.0293 7.97068C46.1315 12.0728 48.4365 17.6362 48.4375 23.4375Z" fill="#D9A425" fill-opacity="0.5"/>
<path d="M12.5 34.375V25H15.625V34.375" fill="#E73844"/>
<path d="M18.75 34.375V18.75H21.875V34.375" fill="#D9A425"/>
<path d="M25 34.375V23.4375H28.125V34.375" fill="#D9A425"/>
<path d="M31.25 34.375V20.3125H34.375V34.375" fill="#82AB00"/>
<path d="M37.5 26.5625C37.5 30.2921 36.0184 33.869 33.3812 36.5062C30.744 39.1434 27.1671 40.625 23.4375 40.625V48.4375C29.2388 48.4365 34.8022 46.1315 38.9043 42.0293C43.0065 37.9272 45.3115 32.3638 45.3125 26.5625H37.5Z" fill="#D9A425"/>
<path d="M13.4945 36.5055L7.96875 42.0312C9.99785 44.0656 12.409 45.6789 15.0637 46.7783C17.7184 47.8777 20.5642 48.4416 23.4375 48.4375V40.625C21.5905 40.6274 19.7612 40.2646 18.0548 39.5577C16.3485 38.8507 14.7987 37.8134 13.4945 36.5055Z" fill="#E73844"/>
<path d="M9.53125 40.4687C13.2489 44.1928 18.1882 46.4464 23.4375 46.8133V40.625C21.5905 40.6274 19.7612 40.2646 18.0548 39.5577C16.3485 38.8507 14.7987 37.8134 13.4945 36.5055L9.53125 40.4687Z" fill="#FF4D55"/>
<path d="M39.6648 41.2273C43.3059 37.2117 45.3195 31.9831 45.3125 26.5625H37.5C37.5 30.2921 36.0184 33.869 33.3812 36.5062C30.744 39.1434 27.1671 40.625 23.4375 40.625V46.8133C23.9539 46.85 24.4742 46.875 25 46.875C30.4206 46.8819 35.6491 44.8683 39.6648 41.2273Z" fill="#D9A425"/>
<path d="M40.625 23.4375H46.8133C46.4363 18.1913 44.1817 13.2567 40.4625 9.53749C36.7433 5.81833 31.8087 3.56372 26.5625 3.18672V9.375C30.2921 9.375 33.869 10.8566 36.5062 13.4938C39.1434 16.131 40.625 19.7079 40.625 23.4375Z" fill="#D9A425"/>
<path d="M14.0625 25V31.25C14.0625 31.6644 14.2271 32.0618 14.5201 32.3549C14.8132 32.6479 15.2106 32.8125 15.625 32.8125V25H14.0625Z" fill="#FF4D55"/>
<path d="M20.3125 18.75V31.25C20.3125 31.6644 20.4771 32.0618 20.7701 32.3549C21.0632 32.6479 21.4606 32.8125 21.875 32.8125V18.75H20.3125Z" fill="#D9A425"/>
<path d="M26.5625 23.4375V31.25C26.5625 31.6644 26.7271 32.0618 27.0201 32.3549C27.3132 32.6479 27.7106 32.8125 28.125 32.8125V23.4375H26.5625Z" fill="#D9A425"/>
<path d="M32.8125 20.3125V31.25C32.8125 31.6644 32.9771 32.0618 33.2701 32.3549C33.5632 32.6479 33.9606 32.8125 34.375 32.8125V20.3125H32.8125Z" fill="#8DBF00"/>
</svg>
