<svg width="27" height="27" viewBox="0 0 27 27" fill="none" xmlns="http://www.w3.org/2000/svg">
<g clip-path="url(#clip0_135_1107)">
<path d="M2.11133 3.37622H2.9559V4.16806H2.11133V3.37622Z" fill="#D9A425"/>
<path d="M3.80078 3.37622H4.64536V4.16806H3.80078V3.37622Z" fill="#D9A425"/>
<path d="M5.48926 3.37622H6.33383V4.16806H5.48926V3.37622Z" fill="#D9A425"/>
<path d="M12.1935 12.6138V6.33228H9.71249V12.2443H8.81519V9.71057H6.3342V12.2443H5.43689V8.02142H2.9559V12.2443H2.11133V13.0361H10.5043V7.12411H11.4016V12.6138H12.1935ZM7.12604 10.5024H8.02335V12.2443H7.12604V10.5024ZM3.74774 8.81326H4.64505V12.2443H3.74774V8.81326Z" fill="#D9A425"/>
<path d="M2.11133 14.3557H9.29021V15.1476H2.11133V14.3557Z" fill="#D9A425"/>
<path d="M5.91211 16.0448H6.75668V16.8366H5.91211V16.0448Z" fill="#D9A425"/>
<path d="M2.11133 16.0448H5.06734V16.8366H2.11133V16.0448Z" fill="#D9A425"/>
<path d="M21.5366 13.9202C18.6573 13.9202 16.2912 16.1505 16.0877 19.0009H0.79184V5.43494H21.1143V9.65781H21.9062V3.3235C21.9062 2.6394 21.3762 2.10938 20.6921 2.10938H1.26686C0.582962 2.10938 0 2.6394 0 3.3235V19.7927H16.0877C16.2914 22.5903 18.6573 24.847 21.5366 24.847C24.5491 24.847 27 22.396 27 19.3836C27 16.3711 24.5491 13.9202 21.5366 13.9202ZM1.26686 2.90121H20.6921C20.9395 2.90121 21.1143 3.0761 21.1143 3.3235V4.6431H0.79184V3.3235C0.79184 3.0761 1.01946 2.90121 1.26686 2.90121ZM21.5366 24.0419C18.9607 24.0419 16.8651 21.9464 16.8651 19.3704C16.8651 16.7945 18.9607 14.6989 21.5366 14.6989C24.1126 14.6989 26.2082 16.7945 26.2082 19.3704C26.2082 21.9464 24.1126 24.0419 21.5366 24.0419Z" fill="#D9A425"/>
<path d="M21.5369 15.5962C19.4558 15.5962 17.7627 17.2893 17.7627 19.3704C17.7627 21.4514 19.4558 23.1446 21.5369 23.1446C23.6181 23.1446 25.3111 21.4514 25.3111 19.3704C25.3111 17.2893 23.6181 15.5962 21.5369 15.5962ZM21.5369 22.3528C19.8925 22.3528 18.5545 21.0149 18.5545 19.3704C18.5545 17.726 19.8925 16.388 21.5369 16.388C23.1814 16.388 24.5193 17.726 24.5193 19.3704C24.5193 21.0149 23.1814 22.3528 21.5369 22.3528Z" fill="#D9A425"/>
<path d="M21.9061 17.259H21.1143V19.5344L22.5103 20.9173L23.0636 20.3574L21.9061 19.2065V17.259Z" fill="#D9A425"/>
<path d="M21.9058 13.0362V10.5552H19.4248V11.347H20.5804L19.0025 12.9117L17.3134 11.216L14.7796 13.7464L13.3704 12.3356L12.8105 12.8946L14.7796 14.8633L17.3134 12.3294L18.9893 14.0183L21.1139 11.8805V13.0362H21.9058Z" fill="#D9A425"/>
</g>
<defs>
<clipPath id="clip0_135_1107">
<rect width="27" height="27" fill="white"/>
</clipPath>
</defs>
</svg>
