<svg width="37" height="37" viewBox="0 0 37 37" fill="none" xmlns="http://www.w3.org/2000/svg">
<path d="M18.4998 33.2675C26.643 33.2675 33.2676 26.6431 33.2676 18.5002C33.2676 10.3573 26.643 3.73236 18.4998 3.73236C10.3569 3.73236 3.73242 10.3574 3.73242 18.5002C3.73242 26.643 10.3569 33.2675 18.4998 33.2675ZM18.4998 6.0622C25.3582 6.0622 30.9383 11.6418 30.9383 18.5002C30.9383 25.3581 25.3582 30.9383 18.4998 30.9383C11.6417 30.9383 6.06227 25.3581 6.06227 18.5002C6.06219 11.6418 11.6417 6.0622 18.4998 6.0622Z" fill="black"/>
<path d="M12.4353 24.6793C12.6945 24.9339 13.0315 25.0601 13.3678 25.0601C13.7129 25.0601 14.0572 24.9272 14.3181 24.6618L18.4998 20.4001L22.6824 24.6618C22.9432 24.9272 23.2876 25.0601 23.6324 25.0601C23.969 25.0601 24.3056 24.9339 24.5648 24.6793C25.0897 24.1644 25.0973 23.3212 24.5823 22.7967L20.365 18.5003L24.5823 14.2033C25.0973 13.6788 25.0896 12.836 24.5648 12.321C24.0407 11.8062 23.1979 11.8138 22.6823 12.3383L18.4997 16.5999L14.3181 12.3383C13.8025 11.8134 12.9597 11.8062 12.4352 12.321C11.9107 12.836 11.9027 13.6788 12.4181 14.2033L16.6349 18.5003L12.4181 22.7967C11.9028 23.3212 11.9108 24.1644 12.4353 24.6793Z" fill="black"/>
</svg>
