<svg width="36" height="40" viewBox="0 0 36 40" fill="none" xmlns="http://www.w3.org/2000/svg">
<path d="M3.74219 24L5.05469 16H6.14844L4.83594 24H3.74219ZM0.136719 21.9375L0.320313 20.8438H6.47656L6.29297 21.9375H0.136719ZM0.929688 24L2.24219 16H3.33594L2.02344 24H0.929688ZM0.601562 19.1562L0.78125 18.0625H6.9375L6.75781 19.1562H0.601562Z" fill="#171C26"/>
<path d="M18.4096 25.4148C18.2106 25.6992 17.7894 25.6992 17.5904 25.4148L15.0507 21.7867C14.8187 21.4553 15.0558 21 15.4603 21H20.5397C20.9442 21 21.1813 21.4553 20.9493 21.7867L18.4096 25.4148Z" fill="#BCC2CE"/>
<path d="M18.4096 14.5852C18.2106 14.3008 17.7894 14.3008 17.5904 14.5852L15.0507 18.2133C14.8187 18.5447 15.0558 19 15.4603 19H20.5397C20.9442 19 21.1813 18.5447 20.9493 18.2133L18.4096 14.5852Z" fill="#171C26"/>
</svg>
