<svg width="42" height="42" viewBox="0 0 42 42" fill="none" xmlns="http://www.w3.org/2000/svg">
<g clip-path="url(#clip0_135_1061)">
<path d="M15.207 31.1379H26.7932V39.8276H15.207V31.1379Z" fill="#D9A425" fill-opacity="0.5"/>
<path d="M42 27.5172V31.1379C42 32.3377 41.0274 33.3103 39.8276 33.3103H2.17241C0.972623 33.3103 0 32.3377 0 31.1379V27.5172H42Z" fill="#D9A425" fill-opacity="0.5"/>
<path d="M42 2.17241V27.5172H0V2.17241C0 0.972623 0.972623 0 2.17241 0H39.8276C41.0274 0 42 0.972623 42 2.17241Z" fill="#D9A425" fill-opacity="0.5"/>
<path d="M40.2838 0.0507375C32.3907 0.405565 0 3.35281 0 27.5173V2.17246C0 0.972671 0.972623 4.78836e-05 2.17241 4.78836e-05H39.8276C39.9811 -0.00102665 40.1342 0.0159871 40.2838 0.0507375Z" fill="#D9A425" fill-opacity="0.5"/>
<path d="M22.4478 31.1379H19.5513C19.1514 31.1379 18.8271 30.8137 18.8271 30.4138C18.8271 30.0139 19.1514 29.6897 19.5513 29.6897H22.4478C22.8478 29.6897 23.172 30.0139 23.172 30.4138C23.172 30.8137 22.8478 31.1379 22.4478 31.1379Z" fill="#ECF0F1"/>
<path d="M31.8618 40.5517V41.2759C31.8618 41.6758 31.5376 42 31.1377 42H10.8618C10.4619 42 10.1377 41.6758 10.1377 41.2759V40.5517C10.1377 38.952 11.4345 37.6552 13.0342 37.6552H28.9653C30.565 37.6552 31.8618 38.952 31.8618 40.5517Z" fill="#D9A425" fill-opacity="0.5"/>
<path d="M6.51711 7.24139C6.11718 7.24139 5.79297 6.91718 5.79297 6.51725V4.34483C5.79297 3.9449 6.11718 3.6207 6.51711 3.6207C6.91704 3.6207 7.24124 3.9449 7.24124 4.34483V6.51725C7.24124 6.91718 6.91704 7.24139 6.51711 7.24139Z" fill="#4C8056"/>
<path d="M6.51711 21.7241C6.11718 21.7241 5.79297 21.3999 5.79297 21V18.8276C5.79297 18.4277 6.11718 18.1035 6.51711 18.1035C6.91704 18.1035 7.24124 18.4277 7.24124 18.8276V21C7.24124 21.3999 6.91704 21.7241 6.51711 21.7241Z" fill="#4C8056"/>
<path d="M12.3101 8.68967C11.9101 8.68967 11.5859 8.36546 11.5859 7.96553V2.89656C11.5859 2.49663 11.9101 2.17242 12.3101 2.17242C12.71 2.17242 13.0342 2.49663 13.0342 2.89656V7.96553C13.0342 8.36546 12.71 8.68967 12.3101 8.68967Z" fill="#C03A2B"/>
<path d="M12.3101 15.2069C11.9101 15.2069 11.5859 14.8827 11.5859 14.4828V12.3104C11.5859 11.9104 11.9101 11.5862 12.3101 11.5862C12.71 11.5862 13.0342 11.9104 13.0342 12.3104V14.4828C13.0342 14.8827 12.71 15.2069 12.3101 15.2069Z" fill="#C03A2B"/>
<path d="M18.103 7.24139C17.7031 7.24139 17.3789 6.91718 17.3789 6.51725V2.89656C17.3789 2.49663 17.7031 2.17242 18.103 2.17242C18.503 2.17242 18.8272 2.49663 18.8272 2.89656V6.51725C18.8272 6.91718 18.503 7.24139 18.103 7.24139Z" fill="#4C8056"/>
<path d="M18.103 18.8276C17.7031 18.8276 17.3789 18.5034 17.3789 18.1034V14.4827C17.3789 14.0828 17.7031 13.7586 18.103 13.7586C18.503 13.7586 18.8272 14.0828 18.8272 14.4827V18.1034C18.8272 18.5034 18.503 18.8276 18.103 18.8276Z" fill="#4C8056"/>
<path d="M23.897 10.1379C23.4971 10.1379 23.1729 9.81373 23.1729 9.4138V4.34483C23.1729 3.9449 23.4971 3.6207 23.897 3.6207C24.2969 3.6207 24.6211 3.9449 24.6211 4.34483V9.4138C24.6211 9.81373 24.2969 10.1379 23.897 10.1379Z" fill="#C03A2B"/>
<path d="M23.897 21C23.4971 21 23.1729 20.6758 23.1729 20.2759V18.1035C23.1729 17.7035 23.4971 17.3793 23.897 17.3793C24.2969 17.3793 24.6211 17.7035 24.6211 18.1035V20.2759C24.6211 20.6758 24.2969 21 23.897 21Z" fill="#C03A2B"/>
<path d="M29.69 13.0345C29.29 13.0345 28.9658 12.7103 28.9658 12.3103V8.68965C28.9658 8.28972 29.29 7.96552 29.69 7.96552C30.0899 7.96552 30.4141 8.28972 30.4141 8.68965V12.3103C30.4141 12.7103 30.0899 13.0345 29.69 13.0345Z" fill="#C03A2B"/>
<path d="M29.69 22.4483C29.29 22.4483 28.9658 22.1241 28.9658 21.7242V19.5517C28.9658 19.1518 29.29 18.8276 29.69 18.8276C30.0899 18.8276 30.4141 19.1518 30.4141 19.5517V21.7242C30.4141 22.1241 30.0899 22.4483 29.69 22.4483Z" fill="#C03A2B"/>
<path d="M35.4829 18.8276C35.083 18.8276 34.7588 18.5034 34.7588 18.1035V14.4828C34.7588 14.0828 35.083 13.7586 35.4829 13.7586C35.8829 13.7586 36.2071 14.0828 36.2071 14.4828V18.1035C36.2071 18.5034 35.8829 18.8276 35.4829 18.8276Z" fill="#C03A2B"/>
<path d="M35.4829 25.3448C35.083 25.3448 34.7588 25.0206 34.7588 24.6207V22.4483C34.7588 22.0484 35.083 21.7242 35.4829 21.7242C35.8829 21.7242 36.2071 22.0484 36.2071 22.4483V24.6207C36.2071 25.0206 35.8829 25.3448 35.4829 25.3448Z" fill="#C03A2B"/>
<path d="M7.24175 6.51724H5.79347C5.39354 6.51724 5.06934 6.84145 5.06934 7.24138V18.1034C5.06934 18.5034 5.39354 18.8276 5.79347 18.8276H7.24175C7.64168 18.8276 7.96589 18.5034 7.96589 18.1034V7.24138C7.96589 6.84145 7.64168 6.51724 7.24175 6.51724Z" fill="#4FBA6F"/>
<path d="M13.0347 7.96552H11.5864C11.1865 7.96552 10.8623 8.28972 10.8623 8.68965V11.5862C10.8623 11.9861 11.1865 12.3103 11.5864 12.3103H13.0347C13.4346 12.3103 13.7589 11.9861 13.7589 11.5862V8.68965C13.7589 8.28972 13.4346 7.96552 13.0347 7.96552Z" fill="#E64C3C"/>
<path d="M18.8277 6.51724H17.3794C16.9795 6.51724 16.6553 6.84145 16.6553 7.24138V13.7586C16.6553 14.1586 16.9795 14.4828 17.3794 14.4828H18.8277C19.2276 14.4828 19.5518 14.1586 19.5518 13.7586V7.24138C19.5518 6.84145 19.2276 6.51724 18.8277 6.51724Z" fill="#4FBA6F"/>
<path d="M24.6207 9.41379H23.1724C22.7724 9.41379 22.4482 9.738 22.4482 10.1379V17.3793C22.4482 17.7792 22.7724 18.1034 23.1724 18.1034H24.6207C25.0206 18.1034 25.3448 17.7792 25.3448 17.3793V10.1379C25.3448 9.738 25.0206 9.41379 24.6207 9.41379Z" fill="#E64C3C"/>
<path d="M30.4136 12.3103H28.9653C28.5654 12.3103 28.2412 12.6345 28.2412 13.0345V18.8276C28.2412 19.2275 28.5654 19.5517 28.9653 19.5517H30.4136C30.8136 19.5517 31.1378 19.2275 31.1378 18.8276V13.0345C31.1378 12.6345 30.8136 12.3103 30.4136 12.3103Z" fill="#E64C3C"/>
<path d="M36.2066 18.1035H34.7583C34.3584 18.1035 34.0342 18.4277 34.0342 18.8276V21.7241C34.0342 22.1241 34.3584 22.4483 34.7583 22.4483H36.2066C36.6065 22.4483 36.9307 22.1241 36.9307 21.7241V18.8276C36.9307 18.4277 36.6065 18.1035 36.2066 18.1035Z" fill="#E64C3C"/>
</g>
<defs>
<clipPath id="clip0_135_1061">
<rect width="42" height="42" fill="white"/>
</clipPath>
</defs>
</svg>
