<svg width="28" height="25" viewBox="0 0 28 25" fill="none" xmlns="http://www.w3.org/2000/svg">
<path d="M8.16669 6.62693C9.7558 5.791 11.6914 5.20833 14 5.20833C21.3587 5.20833 24.9283 11.1283 25.5627 12.3C25.6323 12.4282 25.6319 12.5723 25.5625 12.7006C25.1516 13.4592 23.5133 16.2026 20.4167 18.0462M16.3334 19.5834C15.6024 19.7173 14.825 19.7917 14 19.7917C6.64145 19.7917 3.07169 13.8717 2.4373 12.7C2.36781 12.5718 2.36893 12.4261 2.43845 12.2978C2.69357 11.827 3.41812 10.598 4.66669 9.29285" stroke="white" stroke-width="2" stroke-linecap="round" stroke-linejoin="round"/>
<path d="M11.6667 10.1707C12.286 9.67589 13.1036 9.375 14.0001 9.375C15.9331 9.375 17.5001 10.7741 17.5001 12.5C17.5001 13.3004 17.163 14.0304 16.6089 14.5833" stroke="white" stroke-width="2" stroke-linecap="round" stroke-linejoin="round"/>
<path d="M3.5 3.125L24.5 21.875" stroke="white" stroke-width="2" stroke-linecap="round" stroke-linejoin="round"/>
</svg>
