<svg width="22" height="22" viewBox="0 0 22 22" fill="none" xmlns="http://www.w3.org/2000/svg">
<g clip-path="url(#clip0_135_1208)">
<path d="M22 11.0669C22 4.99176 17.0751 0.0668945 11 0.0668945C4.92486 0.0668945 0 4.99176 0 11.0669C0 16.5573 4.02256 21.108 9.28125 21.9333V14.2466H6.48828V11.0669H9.28125V8.64346C9.28125 5.88658 10.9235 4.36377 13.4361 4.36377C14.6396 4.36377 15.8984 4.57861 15.8984 4.57861V7.28565H14.5114C13.1449 7.28565 12.7188 8.13355 12.7188 9.00345V11.0669H15.7695L15.2818 14.2466H12.7188V21.9333C17.9775 21.108 22 16.5573 22 11.0669Z" fill="white"/>
</g>
<defs>
<clipPath id="clip0_135_1208">
<rect width="22" height="22" fill="white"/>
</clipPath>
</defs>
</svg>
