<svg width="26" height="26" viewBox="0 0 26 26" fill="none" xmlns="http://www.w3.org/2000/svg">
<path d="M12.7576 22.75H3.59377C4.65989 21.3967 5.2373 19.7228 5.23226 18V3.25H19.3695V11.0283C19.3695 11.136 19.4123 11.2393 19.4885 11.3155C19.5647 11.3917 19.668 11.4345 19.7757 11.4345C19.8835 11.4345 19.9868 11.3917 20.063 11.3155C20.1392 11.2393 20.182 11.136 20.182 11.0283V2.84375C20.182 2.7904 20.1715 2.73756 20.1511 2.68827C20.1307 2.63897 20.1007 2.59418 20.063 2.55646C20.0253 2.51873 19.9805 2.48881 19.9312 2.4684C19.8819 2.44798 19.8291 2.43749 19.7757 2.4375H4.82601C4.77266 2.43749 4.71982 2.44798 4.67053 2.4684C4.62123 2.48881 4.57644 2.51873 4.53872 2.55646C4.50099 2.59418 4.47107 2.63897 4.45065 2.68827C4.43024 2.73756 4.41974 2.7904 4.41976 2.84375V18C4.42226 18.9046 4.24532 19.8007 3.89917 20.6365C3.55303 21.4723 3.04455 22.2311 2.40318 22.869C2.34637 22.9258 2.30767 22.9982 2.29199 23.077C2.27631 23.1558 2.28435 23.2375 2.3151 23.3117C2.34584 23.386 2.39791 23.4494 2.46472 23.494C2.53153 23.5387 2.61007 23.5625 2.69042 23.5625H12.7576C12.8653 23.5625 12.9687 23.5197 13.0449 23.4435C13.1211 23.3673 13.1639 23.264 13.1639 23.1562C13.1639 23.0485 13.1211 22.9452 13.0449 22.869C12.9687 22.7928 12.8653 22.75 12.7576 22.75Z" fill="black"/>
<path d="M16.9605 7.55444H7.64111C7.53337 7.55444 7.43004 7.59725 7.35385 7.67343C7.27766 7.74962 7.23486 7.85295 7.23486 7.96069C7.23486 8.06844 7.27766 8.17177 7.35385 8.24796C7.43004 8.32414 7.53337 8.36694 7.64111 8.36694H16.9605C17.0682 8.36694 17.1716 8.32414 17.2478 8.24796C17.3239 8.17177 17.3667 8.06844 17.3667 7.96069C17.3667 7.85295 17.3239 7.74962 17.2478 7.67343C17.1716 7.59725 17.0682 7.55444 16.9605 7.55444Z" fill="black"/>
<path d="M17.3667 10.7133C17.3668 10.6599 17.3563 10.6071 17.3358 10.5578C17.3154 10.5085 17.2855 10.4637 17.2478 10.426C17.2101 10.3882 17.1653 10.3583 17.116 10.3379C17.0667 10.3175 17.0138 10.307 16.9605 10.307H7.64111C7.53337 10.307 7.43004 10.3498 7.35385 10.426C7.27766 10.5022 7.23486 10.6055 7.23486 10.7133C7.23486 10.821 7.27766 10.9243 7.35385 11.0005C7.43004 11.0767 7.53337 11.1195 7.64111 11.1195H16.9605C17.0138 11.1195 17.0667 11.109 17.116 11.0886C17.1653 11.0682 17.2101 11.0383 17.2478 11.0006C17.2855 10.9628 17.3154 10.918 17.3358 10.8687C17.3563 10.8194 17.3668 10.7666 17.3667 10.7133Z" fill="black"/>
<path d="M13.3161 13.4658C13.3161 13.4125 13.3056 13.3596 13.2852 13.3103C13.2648 13.261 13.2349 13.2163 13.1972 13.1785C13.1594 13.1408 13.1146 13.1109 13.0653 13.0905C13.0161 13.0701 12.9632 13.0596 12.9099 13.0596H7.64111C7.53337 13.0596 7.43004 13.1024 7.35385 13.1786C7.27766 13.2547 7.23486 13.3581 7.23486 13.4658C7.23486 13.5736 7.27766 13.6769 7.35385 13.7531C7.43004 13.8293 7.53337 13.8721 7.64111 13.8721H12.9099C12.9632 13.8721 13.0161 13.8616 13.0653 13.8412C13.1146 13.8208 13.1594 13.7908 13.1972 13.7531C13.2349 13.7154 13.2648 13.6706 13.2852 13.6213C13.3056 13.572 13.3161 13.5192 13.3161 13.4658Z" fill="black"/>
<path d="M7.64111 15.812C7.53337 15.812 7.43004 15.8548 7.35385 15.931C7.27766 16.0072 7.23486 16.1105 7.23486 16.2183C7.23486 16.326 7.27766 16.4293 7.35385 16.5055C7.43004 16.5817 7.53337 16.6245 7.64111 16.6245H10.9548C11.0625 16.6245 11.1659 16.5817 11.2421 16.5055C11.3182 16.4293 11.361 16.326 11.361 16.2183C11.361 16.1105 11.3182 16.0072 11.2421 15.931C11.1659 15.8548 11.0625 15.812 10.9548 15.812H7.64111Z" fill="black"/>
<path d="M22.1776 14.5976C21.4981 13.9169 20.6445 13.4361 19.7102 13.2077C18.7759 12.9793 17.7968 13.0121 16.8799 13.3025C15.963 13.593 15.1436 14.1299 14.5112 14.8545C13.8788 15.5792 13.4577 16.4638 13.2941 17.4115L12.9713 17.0887C12.8951 17.0125 12.7918 16.9697 12.684 16.9697C12.5763 16.9697 12.473 17.0125 12.3968 17.0887C12.3206 17.1649 12.2778 17.2682 12.2778 17.3759C12.2778 17.4837 12.3206 17.587 12.3968 17.6632L13.3316 18.5979C13.408 18.674 13.5114 18.7166 13.6191 18.7166C13.7269 18.7166 13.8303 18.674 13.9066 18.5979L14.8417 17.6632C14.9178 17.587 14.9606 17.4837 14.9606 17.3759C14.9606 17.2682 14.9178 17.1649 14.8417 17.0887C14.7655 17.0125 14.6622 16.9697 14.5544 16.9697C14.4467 16.9697 14.3434 17.0125 14.2672 17.0887L14.1749 17.1809C14.4247 16.2364 14.9794 15.4008 15.7529 14.8039C16.5263 14.2069 17.4752 13.8821 18.4522 13.8798C19.4292 13.8775 20.3796 14.1978 21.1559 14.7911C21.9321 15.3844 22.4907 16.2174 22.745 17.1608C22.9992 18.1041 22.9348 19.105 22.5619 20.008C22.1889 20.911 21.5282 21.6656 20.6823 22.1546C19.8365 22.6436 18.8529 22.8395 17.8842 22.7121C16.9156 22.5847 16.0161 22.141 15.3255 21.4499C15.2493 21.3738 15.146 21.331 15.0382 21.331C14.9305 21.331 14.8272 21.3738 14.751 21.4499C14.6748 21.5261 14.632 21.6294 14.632 21.7372C14.632 21.8449 14.6748 21.9482 14.751 22.0244C15.736 23.0084 17.0715 23.561 18.4638 23.5607C19.8562 23.5603 21.1914 23.007 22.1759 22.0225C23.1604 21.038 23.7136 19.7027 23.7139 18.3104C23.7142 16.9181 23.1616 15.5826 22.1776 14.5976Z" fill="black"/>
<path d="M18.4644 14.7936C18.411 14.7936 18.3582 14.8041 18.3089 14.8245C18.2596 14.8449 18.2148 14.8748 18.1771 14.9125C18.1393 14.9503 18.1094 14.9951 18.089 15.0443C18.0686 15.0936 18.0581 15.1465 18.0581 15.1998V18.311C18.0587 18.4188 18.1016 18.522 18.1775 18.5986L19.6498 20.0709C19.7261 20.1462 19.8292 20.1883 19.9365 20.188C20.0437 20.1877 20.1465 20.1449 20.2224 20.069C20.2982 19.9932 20.341 19.8904 20.3414 19.7831C20.3417 19.6758 20.2996 19.5728 20.2242 19.4964L18.8706 18.1428V15.1998C18.8706 15.1465 18.8601 15.0936 18.8397 15.0443C18.8193 14.9951 18.7894 14.9503 18.7516 14.9125C18.7139 14.8748 18.6691 14.8449 18.6198 14.8245C18.5705 14.8041 18.5177 14.7936 18.4644 14.7936Z" fill="black"/>
</svg>
