<svg width="24" height="24" viewBox="0 0 24 24" fill="none" xmlns="http://www.w3.org/2000/svg">
<path d="M21.146 8.57606L13.596 2.44106C12.671 1.69006 11.329 1.69006 10.404 2.44106L2.85496 8.57506C2.58996 8.79006 2.43896 9.10806 2.43896 9.44806V20.9911C2.43896 21.6111 2.94396 22.1211 3.56396 22.1211H8.62597C9.24597 22.1211 9.75097 21.6111 9.75097 20.9911V13.6851H14.25V20.9911C14.25 21.6111 14.755 22.1211 15.375 22.1211H20.437C21.057 22.1211 21.562 21.6111 21.562 20.9911V9.44806C21.561 9.10806 21.41 8.79006 21.146 8.57606ZM20.436 20.9971H15.374V13.6801C15.374 13.0601 14.869 12.5611 14.249 12.5611H9.74996C9.12996 12.5611 8.62496 13.0601 8.62496 13.6801V20.9971H3.56396V9.44806L11.114 3.31406C11.627 2.89606 12.374 2.89706 12.887 3.31406L20.437 9.44806L20.436 20.9971Z" fill="white"/>
</svg>
