<svg width="22" height="22" viewBox="0 0 22 22" fill="none" xmlns="http://www.w3.org/2000/svg">
<g clip-path="url(#clip0_135_1210)">
<path d="M14.3285 11.0955C14.3285 12.872 12.8414 14.313 11.0072 14.313C9.17431 14.313 7.68656 12.8713 7.68656 11.0955C7.68656 10.7765 7.73538 10.4692 7.82475 10.1784L6.99219 9.99756V14.6732C6.99219 14.9077 7.09256 15.0074 7.32631 15.0074H14.6736C14.9074 15.0074 15.0078 14.9077 15.0078 14.6732V9.99756L14.191 10.1784C14.2797 10.4699 14.3285 10.7765 14.3285 11.0955Z" fill="white"/>
<path d="M11.008 13.0598C12.193 13.0598 13.1537 12.1287 13.1537 10.9801C13.1537 9.8315 12.193 8.90039 11.008 8.90039C9.82296 8.90039 8.8623 9.8315 8.8623 10.9801C8.8623 12.1287 9.82296 13.0598 11.008 13.0598Z" fill="white"/>
<path d="M11 0C4.92525 0 0 4.92456 0 11C0 17.0754 4.92525 22 11 22C17.0748 22 22 17.0748 22 11C22 4.92525 17.0748 0 11 0ZM16.3439 15.0074C16.3439 15.7616 15.7623 16.3433 15.0081 16.3433H6.99256C6.23837 16.3433 5.65675 15.7616 5.65675 15.0074V6.99188C5.65675 6.23769 6.23837 5.65606 6.99256 5.65606H15.0081C15.7623 5.65606 16.3439 6.23769 16.3439 6.99188V15.0074Z" fill="white"/>
<path d="M14.6736 6.9917H13.3371C13.1521 6.9917 13.0029 7.14089 13.0029 7.32582V8.66164C13.0029 8.84657 13.1521 8.99576 13.3371 8.99576H14.6729C14.8578 8.99576 15.007 8.84657 15.007 8.66164V7.32582C15.007 7.14157 14.8578 6.9917 14.6736 6.9917Z" fill="white"/>
</g>
<defs>
<clipPath id="clip0_135_1210">
<rect width="22" height="22" fill="white"/>
</clipPath>
</defs>
</svg>
