<svg width="23" height="23" viewBox="0 0 23 23" fill="none" xmlns="http://www.w3.org/2000/svg">
<path fill-rule="evenodd" clip-rule="evenodd" d="M13.4074 20.0996C13.4079 20.1087 13.4103 20.1169 13.4103 20.1264C13.4103 21.184 12.555 22.0417 11.4998 22.0417C10.4447 22.0417 9.5894 21.184 9.5894 20.1264C9.5894 20.1173 9.5918 20.1092 9.5918 20.0996C3.48194 19.9319 1.9165 18.9367 1.9165 17.7306C1.9165 17.353 2.08134 16.9975 2.4824 16.6793C5.37082 13.4617 6.229 14.3525 6.229 9.58622C6.229 6.40839 6.35886 3.49505 10.186 2.97036C10.1103 2.79499 10.0671 2.60236 10.0671 2.39968C10.0671 1.60618 10.7087 0.963135 11.4998 0.963135C12.2909 0.963135 12.9325 1.60618 12.9325 2.39968C12.9325 2.60236 12.8894 2.79499 12.8137 2.97036C16.6408 3.49505 16.7707 6.40839 16.7707 9.58622C16.7707 14.3669 17.6332 13.4545 20.5427 16.7066C20.9231 17.0181 21.0832 17.3636 21.0832 17.7306C21.0832 18.9357 19.4765 19.9309 13.4074 20.0996ZM11.4998 21.0848C12.0279 21.0848 12.4553 20.6559 12.4553 20.1274C12.4553 20.1245 12.4543 20.1217 12.4543 20.1188C12.1424 20.1231 11.8333 20.1279 11.4998 20.1279C11.1663 20.1279 10.8578 20.1231 10.5453 20.1188C10.5453 20.1217 10.5444 20.1245 10.5444 20.1274C10.5444 20.6559 10.9718 21.0848 11.4998 21.0848ZM11.4998 1.92003C11.2358 1.92003 11.0226 2.13422 11.0226 2.39872C11.0226 2.66322 11.2358 2.87788 11.4998 2.87788C11.7639 2.87788 11.9776 2.66322 11.9776 2.39872C11.9776 2.13422 11.7639 1.92003 11.4998 1.92003ZM19.9356 17.4484C19.9356 17.4484 19.2063 16.6271 18.0103 15.5394C16.3773 14.0516 15.8123 13.3462 15.8123 9.58622C15.8123 5.91389 15.612 3.83622 11.4998 3.83622C7.38763 3.83622 7.18734 5.91389 7.18734 9.58622C7.18734 13.3467 6.62192 14.0525 4.98796 15.5408C3.81544 16.6089 3.078 17.4297 3.078 17.4297C2.87484 17.5912 2.87484 17.6851 2.87484 17.7306C2.87484 17.7896 2.97307 19.1696 11.4998 19.1696C20.0266 19.1696 20.1248 17.7896 20.1248 17.7306C20.1248 17.6923 20.1248 17.6027 19.9356 17.4484Z" fill="black"/>
</svg>
