<svg width="27" height="27" viewBox="0 0 27 27" fill="none" xmlns="http://www.w3.org/2000/svg">
<g clip-path="url(#clip0_135_1122)">
<path d="M7.40348 15.6774C7.40348 13.7817 8.21576 12.0804 9.5052 10.8871H1.74219V16.9839H7.40348L7.50703 16.8027C7.44303 16.4365 7.40348 16.0619 7.40348 15.6774Z" fill="#F0BC5E"/>
<path d="M1.74219 7.4032H8.70993V10.0161H1.74219V7.4032Z" fill="#F0BC5E"/>
<path d="M21.7744 8.27417H24.3873V15.6774H21.7744V8.27417Z" fill="#F0BC5E"/>
<path d="M18.291 10.8871H20.9039V15.6774H18.291V10.8871Z" fill="#F0BC5E"/>
<path d="M14.8066 8.27417H17.4195V15.6774H14.8066V8.27417Z" fill="#F0BC5E"/>
<path d="M4.79004 22.2097H9.14488V23.0807H4.79004V22.2097Z" fill="#D9A425"/>
<path d="M1.74219 7.4032H2.61316V8.27417H1.74219V7.4032Z" fill="#D9A425"/>
<path d="M3.4834 7.4032H4.35437V8.27417H3.4834V7.4032Z" fill="#D9A425"/>
<path d="M5.22559 7.4032H6.09655V8.27417H5.22559V7.4032Z" fill="#D9A425"/>
<path d="M6.96777 7.4032H12.1936V8.27417H6.96777V7.4032Z" fill="#D9A425"/>
<path d="M1.74219 9.14514H6.96799V10.0161H1.74219V9.14514Z" fill="#D9A425"/>
<path d="M7.83887 9.14514H8.70983V10.0161H7.83887V9.14514Z" fill="#D9A425"/>
<path d="M23.3462 22.7304C25.7027 20.2192 27 16.9552 27 13.5C27 9.93426 25.6083 6.6894 23.342 4.27382L24.2629 3.35289C24.4332 3.43475 24.6214 3.48387 24.8226 3.48387C25.5428 3.48387 26.129 2.89763 26.129 2.17742C26.129 1.45721 25.5428 0.870968 24.8226 0.870968C24.1024 0.870968 23.5161 1.45721 23.5161 2.17742C23.5161 2.37858 23.5653 2.56676 23.6471 2.73708L22.7262 3.65802C20.3106 1.39172 17.0657 0 13.5 0C10.8771 0 8.34118 0.75508 6.15334 2.17742H1.74194C0.781234 2.17742 0 2.95865 0 3.91936V23.0806C0 24.0413 0.781234 24.8226 1.74194 24.8226H6.14781C8.33607 26.2466 10.8775 27 13.5 27C16.0925 27 18.5991 26.2604 20.7699 24.8696L22.4117 26.5114C22.727 26.8267 23.1455 27 23.5906 27C24.5104 27 25.2581 26.2524 25.2581 25.3325C25.2581 24.8874 25.0848 24.4685 24.7694 24.1536L23.3462 22.7304ZM24.8226 1.74194C25.0624 1.74194 25.2581 1.93756 25.2581 2.17742C25.2581 2.41728 25.0624 2.6129 24.8226 2.6129C24.5827 2.6129 24.3871 2.41728 24.3871 2.17742C24.3871 1.93756 24.5827 1.74194 24.8226 1.74194ZM13.5 0.870968C16.8255 0.870968 19.8528 2.1653 22.1108 4.2734L21.0278 5.35637C20.8571 5.27493 20.6689 5.22581 20.4677 5.22581C20.1851 5.22581 19.9251 5.31809 19.7114 5.47098L17.367 3.83005C17.3977 3.71905 17.4194 3.60444 17.4194 3.48387C17.4194 2.76366 16.8331 2.17742 16.1129 2.17742C15.3927 2.17742 14.8065 2.76366 14.8065 3.48387C14.8065 4.20408 15.3927 4.79032 16.1129 4.79032C16.3955 4.79032 16.6556 4.69804 16.8693 4.54515L19.2136 6.18608C19.183 6.29708 19.1613 6.41169 19.1613 6.53226C19.1613 7.25247 19.7475 7.83871 20.4677 7.83871C21.188 7.83871 21.7742 7.25247 21.7742 6.53226C21.7742 6.3311 21.7251 6.14292 21.6432 5.97259L22.7262 4.88963C24.8347 7.14721 26.129 10.1745 26.129 13.5C26.129 16.7225 24.9223 19.768 22.73 22.1142L19.8911 19.2755C20.4578 18.3409 20.8097 17.2656 20.8811 16.1129H25.2581V15.2419H13.9355V16.1129H18.2682C18.049 18.3103 16.1895 20.0323 13.9355 20.0323C11.5342 20.0323 9.58065 18.0787 9.58065 15.6774C9.58065 13.2761 11.5342 11.3226 13.9355 11.3226C14.2298 11.3226 14.5202 11.3621 14.8065 11.4202V10.5269C14.5194 10.479 14.2285 10.4516 13.9355 10.4516C11.0538 10.4516 8.70968 12.7957 8.70968 15.6774C8.70968 18.5591 11.0538 20.9032 13.9355 20.9032C16.6698 20.9032 18.9165 18.7907 19.1392 16.1129H20.0101C19.7854 19.2714 17.1502 21.7742 13.9355 21.7742C10.5735 21.7742 7.83871 19.0394 7.83871 15.6774C7.83871 12.3154 10.5735 9.58065 13.9355 9.58065C14.2277 9.58065 14.5181 9.60893 14.8065 9.64997V8.77028C14.5177 8.73456 14.2272 8.70968 13.9355 8.70968V3.91936C13.9355 2.95865 13.1543 2.17742 12.1935 2.17742H7.91441C9.64295 1.32304 11.5446 0.870968 13.5 0.870968ZM20.9032 6.53226C20.9032 6.77211 20.7076 6.96774 20.4677 6.96774C20.2279 6.96774 20.0323 6.77211 20.0323 6.53226C20.0323 6.2924 20.2279 6.09677 20.4677 6.09677C20.7076 6.09677 20.9032 6.2924 20.9032 6.53226ZM16.5484 3.48387C16.5484 3.72373 16.3528 3.91936 16.1129 3.91936C15.873 3.91936 15.6774 3.72373 15.6774 3.48387C15.6774 3.24401 15.873 3.04839 16.1129 3.04839C16.3528 3.04839 16.5484 3.24401 16.5484 3.48387ZM0.870968 3.91936C0.870968 3.439 1.26158 3.04839 1.74194 3.04839H12.1935C12.6739 3.04839 13.0645 3.439 13.0645 3.91936V5.66129H0.870968V3.91936ZM0.870968 6.53226H13.0645V8.77028C9.63295 9.20087 6.96774 12.1308 6.96774 15.6774C6.96774 16.4382 7.09448 17.1689 7.32094 17.8548H1.74194V18.7258H7.67966C7.99415 19.3678 8.40178 19.9546 8.88872 20.4677H0.870968V6.53226ZM1.74194 23.9516C1.26158 23.9516 0.870968 23.561 0.870968 23.0806V21.3387H9.88897C10.8074 21.9973 11.8901 22.4374 13.0645 22.5846V23.0806C13.0645 23.561 12.6739 23.9516 12.1935 23.9516H1.74194ZM13.5 26.129C11.5469 26.129 9.64465 25.6761 7.91675 24.8226H12.1935C13.1543 24.8226 13.9355 24.0413 13.9355 23.0806V22.6452C15.2528 22.6452 16.4814 22.2711 17.5335 21.633L20.1373 24.2368C18.1445 25.4709 15.8611 26.129 13.5 26.129ZM23.5906 26.129C23.3781 26.129 23.1782 26.0463 23.0275 25.8956L18.2616 21.1297C18.6788 20.7982 19.0558 20.4207 19.3878 20.0036L24.154 24.7698C24.3044 24.9202 24.3871 25.1201 24.3871 25.3325C24.3871 25.772 24.0301 26.129 23.5906 26.129Z" fill="#D9A425"/>
</g>
<defs>
<clipPath id="clip0_135_1122">
<rect width="27" height="27" fill="white"/>
</clipPath>
</defs>
</svg>
