<svg width="22" height="22" viewBox="0 0 22 22" fill="none" xmlns="http://www.w3.org/2000/svg">
<path d="M2.11236 6.44422C1.86175 6.58742 1.52164 6.51582 1.37843 6.24731C1.23523 5.9788 1.30683 5.65658 1.57534 5.51338C9.86338 0.608576 12.3158 6.99914 20.0668 5.29857C20.3532 5.24487 20.6396 5.42387 20.7112 5.71028C20.7649 5.9967 20.5859 6.28311 20.2995 6.35471C12.4232 8.07318 9.77388 1.89743 2.11236 6.44422ZM13.0318 11.6175C13.0318 10.4898 12.1189 9.57684 10.9911 9.57684C9.86338 9.57684 8.95044 10.4898 8.95044 11.6175C8.95044 12.7453 9.86338 13.6582 10.9911 13.6582C12.1189 13.6582 13.0318 12.7453 13.0318 11.6175ZM14.1059 11.6175C14.1059 13.336 12.7096 14.7323 10.9911 14.7323C9.27266 14.7323 7.8764 13.336 7.8764 11.6175C7.8764 9.89906 9.27266 8.5028 10.9911 8.5028C12.7096 8.5028 14.1059 9.89906 14.1059 11.6175ZM2.38087 8.28799V16.755C9.84548 12.799 12.5306 18.4198 19.6372 17.0952V8.4849C12.3516 9.75585 9.64857 4.13502 2.38087 8.28799ZM1.73645 7.41085C9.84548 2.72086 12.2979 8.87871 19.852 7.33925C20.5322 7.19605 20.7112 7.41085 20.7112 8.07318V17.2384C20.7112 17.8828 20.6754 17.9723 19.9952 18.1155C12.459 19.6192 9.80968 13.8014 2.47038 17.9365C2.16606 18.0976 1.86175 18.3482 1.53954 18.0976C1.30683 17.9186 1.32473 17.6859 1.32473 17.4174V8.28799C1.32473 8.07318 1.32473 7.92998 1.34263 7.82257C1.36053 7.66147 1.45004 7.57196 1.73645 7.41085ZM3.74133 8.71761C4.65427 8.12688 5.603 7.82257 6.67705 7.71517C7.58999 7.62566 7.67949 8.69971 6.80235 8.78921C5.92522 8.86081 5.13759 9.09352 4.40366 9.55894C3.90244 9.88116 3.58022 9.75585 3.45492 9.50524C3.29381 9.18303 3.45492 8.89662 3.74133 8.71761Z" fill="black"/>
</svg>
