<svg width="22" height="22" viewBox="0 0 22 22" fill="none" xmlns="http://www.w3.org/2000/svg">
<g clip-path="url(#clip0_135_1205)">
<path fill-rule="evenodd" clip-rule="evenodd" d="M11 0C17.0754 0 22 4.92465 22 11C22 17.0754 17.0754 22 11 22C4.92465 22 0 17.0754 0 11C0 4.92465 4.92465 0 11 0ZM13.4707 4.55512C13.4711 4.75191 13.5291 7.59859 16.5159 7.77605C16.5159 8.59676 16.5168 9.19187 16.5168 9.97519C16.2907 9.98809 14.5505 9.86176 13.4673 8.89582L13.4638 13.1772C13.5051 16.1489 11.3184 17.9571 8.45969 17.3323C3.53074 15.858 5.16871 8.54777 10.1179 9.32981C10.1179 11.6901 10.1191 9.32938 10.1191 11.6901C8.07469 11.3893 7.39062 13.09 7.93418 14.3082C8.42832 15.4168 10.4642 15.657 11.1745 14.0929C11.2548 13.787 11.2948 13.4376 11.2948 13.0457V4.54437L13.4707 4.55512Z" fill="white"/>
</g>
<defs>
<clipPath id="clip0_135_1205">
<rect width="22" height="22" fill="white"/>
</clipPath>
</defs>
</svg>
