<svg width="37" height="37" viewBox="0 0 37 37" fill="none" xmlns="http://www.w3.org/2000/svg">
<path d="M25.199 12.1919H11.801V13.7196H25.199V12.1919Z" fill="#FF0000"/>
<path d="M21.4629 13.4197H19.9316V12.6559C19.9316 12.2762 19.7807 11.9121 19.5123 11.6436C19.2438 11.3751 18.8797 11.2243 18.5 11.2243C18.1203 11.2243 17.7562 11.3751 17.4877 11.6436C17.2192 11.9121 17.0684 12.2762 17.0684 12.6559V13.4197H15.5407V12.6559C15.5407 11.871 15.8525 11.1183 16.4075 10.5633C16.9624 10.0084 17.7151 9.69659 18.5 9.69659C19.2848 9.69659 20.0375 10.0084 20.5925 10.5633C21.1475 11.1183 21.4593 11.871 21.4593 12.6559L21.4629 13.4197Z" fill="#FF0000"/>
<path d="M23.0679 27.3034H13.9321L13.1682 26.5395V15.4374L13.9321 14.6735H23.0679L23.8317 15.4374V26.5395L23.0679 27.3034ZM14.6959 25.7757H22.304V16.2012H14.6959V25.7757Z" fill="#FF0000"/>
</svg>
