<svg width="16" height="17" viewBox="0 0 16 17" fill="none" xmlns="http://www.w3.org/2000/svg">
<path d="M9.21488 0.358299C9.08681 0.403686 8.97449 0.484952 8.89132 0.592406C8.80816 0.699861 8.75765 0.828968 8.74583 0.964332L8.64279 2.24963C7.64008 2.14592 6.62681 2.26162 5.67329 2.5887C4.71977 2.91578 3.84884 3.4464 3.12091 4.14376C2.18184 5.04126 1.50766 6.17972 1.17209 7.43461C0.836521 8.68951 0.852492 10.0125 1.21825 11.2589C1.58402 12.5054 2.28549 13.6272 3.24594 14.5018C4.2064 15.3764 5.38886 15.97 6.664 16.2178C7.93915 16.4655 9.25786 16.3579 10.4759 15.9065C11.694 15.4552 12.7645 14.6777 13.5704 13.6589C14.3763 12.6401 14.8865 11.4193 15.0452 10.1301C15.204 8.84083 15.0051 7.53276 14.4705 6.34891C14.3925 6.17781 14.2497 6.0447 14.0735 5.97887C13.8974 5.91304 13.7023 5.91988 13.5312 5.99788C13.3601 6.07588 13.227 6.21866 13.1612 6.3948C13.0954 6.57094 13.1022 6.76602 13.1802 6.93712C13.6071 7.88447 13.7654 8.93098 13.6376 9.96221C13.5099 10.9934 13.101 11.9697 12.4558 12.7842C11.8105 13.5987 10.9537 14.2201 9.9791 14.5805C9.00447 14.9408 7.94952 15.0262 6.9296 14.8274C5.90969 14.6286 4.96409 14.1531 4.1962 13.453C3.42831 12.753 2.8677 11.8552 2.57567 10.858C2.28364 9.86074 2.27144 8.80241 2.5404 7.79871C2.80936 6.795 3.34913 5.88458 4.10067 5.16699C4.68479 4.60737 5.38383 4.18176 6.14916 3.91977C6.91449 3.65779 7.72772 3.56572 8.53224 3.64999L8.40309 5.21527C8.39112 5.35943 8.42357 5.5038 8.49609 5.62897C8.5686 5.75414 8.6777 5.85411 8.80872 5.91543C8.93789 5.97606 9.08236 5.99626 9.2232 5.97339C9.36404 5.95052 9.4947 5.88565 9.59805 5.78727L11.9003 3.5828C12.036 3.45288 12.1145 3.27437 12.1186 3.08655C12.1227 2.89874 12.052 2.71699 11.9221 2.5813L9.96253 0.534839C9.86809 0.436621 9.74732 0.367725 9.61471 0.336413C9.48211 0.3051 9.34328 0.3127 9.21488 0.358299Z" fill="#D9A425"/>
</svg>
