<svg width="23" height="23" viewBox="0 0 23 23" fill="none" xmlns="http://www.w3.org/2000/svg">
<path d="M11.5 13.75C14.6066 13.75 17.125 10.7279 17.125 7C17.125 3.27208 14.6066 0.25 11.5 0.25C8.3934 0.25 5.875 3.27208 5.875 7C5.875 10.7279 8.3934 13.75 11.5 13.75Z" fill="white"/>
<path d="M22.525 19.4875C21.5125 17.4625 19.6 15.775 17.125 14.7625C16.45 14.5375 15.6625 14.5375 15.1 14.875C13.975 15.55 12.85 15.8875 11.5 15.8875C10.15 15.8875 9.025 15.55 7.9 14.875C7.3375 14.65 6.55 14.5375 5.875 14.875C3.4 15.8875 1.4875 17.575 0.475 19.6C-0.3125 21.0625 0.925 22.75 2.6125 22.75H20.3875C22.075 22.75 23.3125 21.0625 22.525 19.4875Z" fill="white"/>
</svg>
