<svg width="22" height="12" viewBox="0 0 22 12" fill="none" xmlns="http://www.w3.org/2000/svg">
<path d="M21.9484 6.01072C19.3531 3.21429 15.7667 0 11 0C9.075 0 7.31042 0.508929 5.44844 1.59643C3.87865 2.51786 2.26875 3.81429 0.0572917 5.94643L0 6L0.383854 6.36964C3.54062 9.39107 6.26771 12 11 12C13.0911 12 15.1193 11.3625 17.199 10.05C18.9693 8.93036 20.476 7.51071 21.6849 6.36428L22 6.06964L21.9484 6.01072ZM11 10.2857C8.47344 10.2857 6.41667 8.3625 6.41667 6C6.41667 3.6375 8.47344 1.71429 11 1.71429C13.5266 1.71429 15.5833 3.6375 15.5833 6C15.5833 8.3625 13.5266 10.2857 11 10.2857Z" fill="#404040"/>
<path d="M10.6792 4.43604C10.6792 4.06639 10.7937 3.71818 10.9943 3.42889C9.47604 3.42889 8.25 4.58604 8.25 6.01104C8.25 7.43604 9.48177 8.58782 10.9943 8.58782C12.5068 8.58782 13.7443 7.43604 13.7443 6.01104C13.4349 6.19854 13.0625 6.30568 12.6672 6.30568C11.5729 6.30032 10.6792 5.46461 10.6792 4.43604Z" fill="#404040"/>
</svg>
